<svg width="41" height="40" viewBox="0 0 41 40" fill="none" xmlns="http://www.w3.org/2000/svg">
<g clip-path="url(#clip0_32_249)">
<path d="M14.9613 27.8216H25.3525C25.6762 27.8216 25.9385 27.5593 25.9385 27.2357C25.9385 26.9121 25.6762 26.6498 25.3525 26.6498H14.9613C14.6378 26.6498 14.3754 26.9121 14.3754 27.2357C14.3754 27.5593 14.6378 27.8216 14.9613 27.8216ZM16.7974 14.3792H23.7538C24.2843 14.3792 24.7442 14.0381 24.8983 13.5305L26.3583 8.72008C26.4695 8.35391 26.4024 7.96758 26.1745 7.66023C25.9466 7.35289 25.5964 7.17664 25.2138 7.17664H24.6941L23.6321 4.5218C23.388 3.91055 22.8049 3.51562 22.1467 3.51562H18.4045C17.7463 3.51562 17.1632 3.91055 16.9191 4.52148L15.857 7.17656H15.3374C14.9547 7.17656 14.6045 7.35281 14.3766 7.66023C14.1486 7.96766 14.0817 8.35391 14.1928 8.72008L15.6528 13.5305C15.8069 14.0381 16.2668 14.3792 16.7974 14.3792ZM15.3179 8.3582C15.3356 8.3343 18.5049 8.35617 18.5276 8.34844C18.8512 8.34844 19.1135 8.08609 19.1135 7.7625C19.1135 7.43891 18.8512 7.17656 18.5276 7.17656H17.1192L18.0071 4.95656C18.0724 4.79313 18.2284 4.6875 18.4045 4.6875H22.1467C22.3228 4.6875 22.4787 4.79313 22.544 4.95672L23.432 7.17656H21.2619C20.9382 7.17656 20.676 7.43891 20.676 7.7625C20.676 8.08609 20.9382 8.34844 21.2619 8.34844C21.2816 8.34844 25.2182 8.33797 25.2332 8.3582C25.2506 8.38172 23.7769 13.1655 23.7769 13.1902C23.7769 13.2423 16.7773 13.2005 16.7742 13.1902C16.7667 13.1656 15.3005 8.38164 15.3179 8.3582ZM14.9613 33.667C14.6378 33.667 14.3754 33.9293 14.3754 34.2529C14.3754 34.5765 14.6378 34.8388 14.9613 34.8388H25.3525C25.6762 34.8388 25.9385 34.5765 25.9385 34.2529C25.9385 33.9293 25.6762 33.667 25.3525 33.667H14.9613ZM30.626 31.9091C30.626 31.5855 30.3637 31.3232 30.04 31.3232H14.9613C14.6378 31.3232 14.3754 31.5855 14.3754 31.9091C14.3754 32.2327 14.6378 32.4951 14.9613 32.4951H30.04C30.3637 32.4951 30.626 32.2327 30.626 31.9091ZM33.5556 25.6489C33.8793 25.6489 34.1416 25.3866 34.1416 25.063V2.92969C34.1416 1.31422 32.8274 0 31.2119 0H9.33923C7.72377 0 6.40955 1.31422 6.40955 2.92969V37.0703C6.40955 38.6858 7.72377 40 9.33923 40H31.212C32.8274 40 34.1417 38.6858 34.1417 37.0703V27.7973C34.1417 27.4737 33.8794 27.2114 33.5557 27.2114C33.2321 27.2114 32.9698 27.4737 32.9698 27.7973V37.0703C32.9698 38.0396 32.1812 38.8281 31.212 38.8281H9.33923C8.36994 38.8281 7.58142 38.0396 7.58142 37.0703V2.92969C7.58142 1.96039 8.36994 1.17188 9.33923 1.17188H31.212C32.1812 1.17188 32.9698 1.96039 32.9698 2.92969V25.063C32.9697 25.3866 33.2321 25.6489 33.5556 25.6489ZM12.6449 28.271C12.3564 28.2746 12.0538 28.2774 11.7765 28.2788C11.9735 28.0113 12.2228 27.6663 12.5335 27.2223C12.806 26.833 12.9988 26.4805 13.049 26.1144C13.0572 26.0544 13.073 25.9466 13.073 25.8894C13.073 25.0163 12.3628 24.3061 11.4897 24.3061C10.7349 24.3061 10.0815 24.8432 9.93611 25.5831C9.87377 25.9006 10.0806 26.2087 10.3981 26.271C10.7157 26.3334 11.0237 26.1266 11.086 25.809C11.1237 25.6171 11.2935 25.478 11.4897 25.478C11.7067 25.478 11.8851 25.6469 11.9001 25.8602C11.9149 26.0707 11.8075 26.2158 11.5734 26.5503C10.9578 27.4299 10.5905 27.9108 10.3932 28.1691C10.0488 28.6201 9.88416 29.2079 10.4808 29.4067C10.5578 29.4323 12.1045 29.4498 12.6596 29.4428C12.9832 29.4388 13.2422 29.1731 13.2381 28.8495C13.2341 28.5259 12.9657 28.2648 12.6449 28.271ZM30.04 24.306H14.9613C14.6378 24.306 14.3754 24.5684 14.3754 24.892C14.3754 25.2155 14.6378 25.4779 14.9613 25.4779H30.04C30.3637 25.4779 30.626 25.2155 30.626 24.892C30.626 24.5684 30.3637 24.306 30.04 24.306ZM11.5817 31.3232C10.8268 31.3232 10.1735 31.8603 10.0281 32.6002C9.96572 32.9177 10.1725 33.2258 10.4901 33.2881C10.8074 33.3504 11.1156 33.1437 11.178 32.8261C11.2156 32.6342 11.3854 32.4951 11.5817 32.4951C11.8085 32.4951 11.9931 32.6796 11.9931 32.9065C11.9931 33.1334 11.8085 33.3179 11.5817 33.3179C11.2581 33.3179 10.9957 33.5802 10.9957 33.9038C10.9957 34.2274 11.2581 34.4898 11.5817 34.4898C11.8085 34.4898 11.9931 34.6743 11.9931 34.9012C11.9931 35.128 11.8085 35.3126 11.5817 35.3126C11.3775 35.3126 11.2024 35.1607 11.1742 34.959C11.1716 34.9401 11.1702 34.9206 11.1702 34.9012C11.1702 34.5776 10.9079 34.3152 10.5843 34.3152C10.2607 34.3152 9.99838 34.5776 9.99838 34.9012C9.99838 35.7618 10.7125 36.4845 11.5817 36.4845C12.4547 36.4845 13.1649 35.7742 13.1649 34.9012C13.1649 34.5234 13.0315 34.1763 12.8098 33.9038C13.0315 33.6313 13.1649 33.2843 13.1649 32.9065C13.1649 32.0334 12.4547 31.3232 11.5817 31.3232ZM11.5817 22.3889C11.9053 22.3889 12.1676 22.1266 12.1676 21.803V17.9053C12.1676 17.5817 11.9053 17.3194 11.5817 17.3194H10.7485C10.4249 17.3194 10.1626 17.5817 10.1626 17.9053C10.1626 18.2289 10.4249 18.4913 10.7485 18.4913H10.9957V21.803C10.9957 22.1266 11.2581 22.3889 11.5817 22.3889ZM14.9613 20.835H25.3525C25.6762 20.835 25.9385 20.5727 25.9385 20.2491C25.9385 19.9255 25.6762 19.6631 25.3525 19.6631H14.9613C14.6378 19.6631 14.3754 19.9255 14.3754 20.2491C14.3754 20.5727 14.6378 20.835 14.9613 20.835ZM30.04 17.3194H14.9613C14.6378 17.3194 14.3754 17.5817 14.3754 17.9053C14.3754 18.2289 14.6378 18.4913 14.9613 18.4913H30.04C30.3637 18.4913 30.626 18.2289 30.626 17.9053C30.626 17.5817 30.3637 17.3194 30.04 17.3194Z" fill="#09A66D"/>
</g>
<defs>
<clipPath id="clip0_32_249">
<rect width="40" height="40" fill="white" transform="translate(0.275391)"/>
</clipPath>
</defs>
</svg>
